<?xml version="1.0" encoding="utf-8"?>
<!-- Generator: Adobe Illustrator 24.2.1, SVG Export Plug-In . SVG Version: 6.00 Build 0)  -->
<svg version="1.1" id="Layer_1" xmlns="http://www.w3.org/2000/svg" xmlns:xlink="http://www.w3.org/1999/xlink" x="0px" y="0px"
	 viewBox="0 0 2000 2000" style="enable-background:new 0 0 2000 2000;" xml:space="preserve">
<path d="M495.65,1971.07c10.45,10.53,24.64,16.5,39.48,16.58c14.88,0.14,29.16-5.86,39.48-16.58l930.93-930.93
	c21.8-21.52,22.03-56.64,0.52-78.44c-0.17-0.17-0.34-0.35-0.52-0.52L574.61,30.05c-21.08-22.53-56.43-23.71-78.96-2.63
	c-22.53,21.08-23.71,56.43-2.63,78.96c0.85,0.91,1.73,1.79,2.63,2.63l891.45,891.65l-891.45,891.45
	c-21.8,21.67-21.91,56.92-0.24,78.72C495.5,1970.91,495.58,1970.99,495.65,1971.07z"/>
</svg>
