<?xml version="1.0" encoding="utf-8"?>
<!-- Generator: Adobe Illustrator 24.2.1, SVG Export Plug-In . SVG Version: 6.00 Build 0)  -->
<svg version="1.1" id="Layer_1" xmlns="http://www.w3.org/2000/svg" xmlns:xlink="http://www.w3.org/1999/xlink" x="0px" y="0px"
	 viewBox="0 0 2000 2000" style="enable-background:new 0 0 2000 2000;" xml:space="preserve">
<g>
	<path d="M1947.78,1855.04l-470.75-471.13c300.81-343.12,266.52-865.13-76.59-1165.94S535.31-48.56,234.5,294.56
		s-266.52,865.13,76.59,1165.94c298.41,261.62,740.67,274.12,1053.38,29.78l474.23,474.23c30.17,29.99,78.91,29.99,109.08,0
		c30.23-30.19,30.26-79.18,0.06-109.41C1947.82,1855.08,1947.8,1855.06,1947.78,1855.04z M188.96,841.6
		c0-369.58,299.6-669.18,669.18-669.18s669.18,299.6,669.18,669.18s-299.6,669.18-669.18,669.18h0
		C488.74,1510.35,189.39,1211,188.96,841.6z"/>
</g>
</svg>
