<?xml version="1.0" encoding="utf-8"?>
<!-- Generator: Adobe Illustrator 25.4.1, SVG Export Plug-In . SVG Version: 6.00 Build 0)  -->
<svg version="1.1" id="Layer_1" xmlns="http://www.w3.org/2000/svg" xmlns:xlink="http://www.w3.org/1999/xlink" x="0px" y="0px"
	 viewBox="0 0 2000 2000" style="enable-background:new 0 0 2000 2000;" xml:space="preserve">
<path d="M1835.26,851.91C1835.63,390.62,1461.99,16.37,1000.7,16c-461.29-0.37-835.54,373.28-835.91,834.57
	c-0.28,350.09,217.79,663.2,546.26,784.33v305.83c0.07,23.66,19.3,42.78,42.95,42.71c4.82-0.01,9.61-0.84,14.16-2.45l231.3-85.67
	l231.3,85.67c22.3,7.89,46.78-3.8,54.66-26.11c1.61-4.55,2.44-9.33,2.45-14.16v-305.83
	C1616.9,1515.08,1835.73,1202.09,1835.26,851.91z M1203.34,1879.9l-188.46-69.39c-9.24-3.27-19.32-3.27-28.56,0l-188.46,69.39
	v-217.88l22.27,4.85l22.56,4.85l27.13,4.57l26.27,4l21.42,2c10.57,0,21.13,2.28,31.98,2.86h7.71c14.56,0,28.56,1.43,43.97,1.43
	c15.42,0,28.56,0,44.83-1.43h7.14c10.28,0,20.56-1.71,31.13-2.86l22.56-2.28l25.7-4l28.56-4.57l22.56-4.85l21.99-4.85
	L1203.34,1879.9z M1231.89,1565.79c-12.28,4.28-25.13,8-37.98,11.42c-127.4,34.11-261.52,34.11-388.92,0
	c-12.56-3.43-25.41-7.14-38.26-11.42c-393.55-128.45-608.45-551.61-479.99-945.16s551.61-608.45,945.16-479.99
	s608.45,551.61,479.99,945.16C1637.66,1313.22,1459.32,1491.56,1231.89,1565.79z"/>
<path d="M1613.68,834.78l-28.56-48.54c-13.43-21.31-18.42-46.87-13.99-71.67l11.14-57.11c18.17-92.04-34.55-183.33-123.36-213.59
	l-53.97-18.28c-24.36-7.99-44.77-24.93-57.11-47.4l-28.56-49.97c-44.81-82.73-144.03-119.39-231.87-85.67l-53.11,20.56
	c-23.68,9.27-49.99,9.27-73.67,0l-53.11-20.56c-87.84-33.73-187.06,2.93-231.87,85.67l-28.56,49.97
	c-12.37,22.38-32.79,39.22-57.11,47.12L536,443.57c-87,32.13-137.39,123.08-118.5,213.88l11.42,57.11
	c4.95,24.84,0.36,50.63-12.85,72.24l-28.56,48.54c-48.61,79.82-30.94,183.27,41.41,242.43l44.55,36.55
	c19.84,15.85,32.99,38.58,36.84,63.68l8.57,57.11c14.89,92.46,95.4,159.96,189.04,158.48h57.11c25.37-0.57,50.03,8.4,69.1,25.13
	l42.83,37.69c70.63,61.8,176.09,61.8,246.72,0l42.83-37.69c19.06-16.75,43.73-25.72,69.1-25.13h57.11
	c93.68,1.6,174.26-65.96,189.04-158.48l8.57-57.11c3.7-25.01,16.64-47.73,36.27-63.68l44.55-36.55
	C1644.18,1018.87,1662.36,915,1613.68,834.78z M1517.16,1010.96l-44.55,35.69c-36.64,29.27-60.91,71.28-67.96,117.65l-8.57,57.11
	c-8.21,50.02-51.83,86.48-102.51,85.67h-57.11c-46.79-1.02-92.25,15.6-127.36,46.54l-42.83,37.69c-38.29,33.39-95.35,33.39-133.64,0
	l-42.83-37.69c-34.08-30.02-77.94-46.57-123.36-46.54h-3.43h-57.11c-50.77,1.06-94.54-35.51-102.51-85.67l-8.57-57.11
	c-7.05-46.37-31.32-88.37-67.96-117.65l-44.55-35.69c-39.64-31.86-49.53-88.17-23.13-131.64l28.56-48.54
	c24.31-40.03,32.67-87.73,23.42-133.64l-11.14-57.11c-9.73-49.83,18.79-99.19,66.82-115.65l53.97-18.28
	c44.35-14.96,81.45-46.05,103.94-87.09l28.56-49.97c24.57-44.5,78.23-64.01,125.64-45.69l53.11,20.56
	c43.61,17.03,92.03,17.03,135.64,0l53.11-20.56c47.41-18.33,101.07,1.19,125.64,45.69l28.56,49.97
	c22.43,41.15,59.54,72.35,103.94,87.38l53.97,18.28c48.03,16.46,76.55,65.82,66.82,115.65l-11.14,57.11
	c-9.25,45.91-0.89,93.61,23.42,133.64l28.56,48.54c26.24,43.41,16.35,99.52-23.13,131.35L1517.16,1010.96z"/>
<path d="M1403.22,695.43l-257-28.56l-107.37-235.29c-9.81-21.53-35.21-31.03-56.74-21.22c-9.4,4.28-16.94,11.82-21.22,21.22
	L853.82,666.02l-257,28.56c-23.5,2.67-40.39,23.89-37.72,47.4c1.17,10.32,6.05,19.86,13.74,26.85L763.3,943l-51.4,253.57
	c-4.65,23.19,10.38,45.77,33.58,50.42c10.09,2.02,20.57,0.34,29.53-4.73l225.01-125.93l225.01,127.36
	c20.58,11.66,46.72,4.42,58.38-16.16c5.07-8.96,6.75-19.44,4.73-29.53l-51.4-255l191.61-173.33c17.5-15.92,18.78-43.01,2.86-60.51
	c-6.99-7.68-16.53-12.56-26.85-13.74H1403.22z M1161.08,897.6c-11.07,10.11-16.06,25.27-13.14,39.98l37.69,185.32l-164.48-94.23
	c-13.11-7.43-29.16-7.43-42.26,0l-164.48,94.23l37.69-185.32c2.92-14.71-2.06-29.87-13.14-39.98L699.62,769.96l187.89-21.42
	c14.9-1.76,27.78-11.18,33.98-24.84l78.53-171.33l78.53,171.33c6.2,13.66,19.09,23.08,33.98,24.84l187.89,21.42L1161.08,897.6z"/>
</svg>
