<?xml version="1.0" encoding="utf-8"?>
<!-- Generator: Adobe Illustrator 25.4.1, SVG Export Plug-In . SVG Version: 6.00 Build 0)  -->
<svg version="1.1" id="Layer_1" xmlns="http://www.w3.org/2000/svg" xmlns:xlink="http://www.w3.org/1999/xlink" x="0px" y="0px"
	 viewBox="0 0 2000 2000" style="enable-background:new 0 0 2000 2000;" xml:space="preserve">
<g>
	<path d="M999.93,18.5c-541.07,0-980.98,440.45-980.98,981.52S458.86,1981,999.93,1981c541.07,0,981.11-439.91,981.11-980.98
		S1541,18.5,999.93,18.5z M930.37,161.72v70.65c0.13,38.38,31.18,69.43,69.56,69.56c38.58,0.15,70.11-30.98,70.25-69.56v-70.65
		c409.37,33.76,734.5,358.81,768.2,768.2h-70.79c-38.58,0.13-69.72,31.53-69.56,70.11c0.13,38.38,31.18,69.43,69.56,69.56h70.79
		c-33.45,409.6-358.65,734.47-768.2,768.2v-70.25c0.15-38.78-31.46-70.26-70.25-70.11c-38.58,0.13-69.72,31.53-69.56,70.11v70.25
		c-409.77-33.47-734.77-358.41-768.2-768.2h70.25c38.38-0.13,69.43-31.18,69.56-69.56c0.15-38.58-30.98-69.98-69.56-70.11h-70.25
		C195.84,520.34,520.78,195.22,930.37,161.72z M999.93,527.27c-38.38,0.13-69.43,31.18-69.56,69.56v453.12l338.27,265.57
		c30.33,23.73,74.14,18.42,97.93-11.87c23.73-30.33,18.42-74.14-11.87-97.93l-284.53-223.83V596.83
		C1070.04,558.25,1038.51,527.11,999.93,527.27z"/>
</g>
</svg>
