<?xml version="1.0" encoding="utf-8"?>
<!-- Generator: Adobe Illustrator 25.4.1, SVG Export Plug-In . SVG Version: 6.00 Build 0)  -->
<svg version="1.1" id="Layer_1" xmlns="http://www.w3.org/2000/svg" xmlns:xlink="http://www.w3.org/1999/xlink" x="0px" y="0px"
	 viewBox="0 0 2000 2000" style="enable-background:new 0 0 2000 2000;" xml:space="preserve">
<g transform="translate(0,-952.36218)">
	<path d="M222.14,1268.54c-116.3,0-212.14,95.84-212.14,212.14v942.86c0,116.3,95.84,212.14,212.14,212.14h1555.71
		c116.3,0,212.14-95.84,212.14-212.14v-942.86c0-116.3-95.84-212.14-212.14-212.14H222.14z M237.61,1409.97h1525.51l-719.66,642.32
		c-27.43,24.5-57.95,24.52-85.45,0L237.61,1409.97z M151.43,1522.67l484.69,432.39l-484.69,465.54V1522.67z M1848.57,1522.67v897.19
		l-483.21-465.54L1848.57,1522.67z M1259.29,2049.34l461.85,444.91H278.86l463.33-444.18l121.54,108.28
		c77.26,68.89,196.75,69,274.02,0L1259.29,2049.34z"/>
</g>
</svg>
