<?xml version="1.0" encoding="utf-8"?>
<!-- Generator: Adobe Illustrator 25.4.1, SVG Export Plug-In . SVG Version: 6.00 Build 0)  -->
<svg version="1.1" id="Layer_1" xmlns="http://www.w3.org/2000/svg" xmlns:xlink="http://www.w3.org/1999/xlink" x="0px" y="0px"
	 viewBox="0 0 2000 2000" style="enable-background:new 0 0 2000 2000;" xml:space="preserve">
<g transform="matrix(1.0034987,0,0,1.0034261,-0.0559793,199.99012)">
	<path d="M996.57-178.38c-423.73,0-768.7,345.1-768.7,768.83c0,308.65,186.08,596.56,365.78,810.61s359.64,356.22,359.64,356.22
		c25.35,20.1,61.21,20.1,86.56,0c0,0,179.93-142.17,359.64-356.22c179.7-214.05,365.78-501.96,365.78-810.61
		C1765.27,166.72,1420.3-178.38,996.57-178.38z M996.57-38.98c348.43,0,629.43,281,629.43,629.43
		c0,250.6-163.46,518.76-333.28,721.05c-135.2,161.03-246.69,257.47-296.15,298.88c-49.45-41.41-160.95-137.84-296.15-298.88
		C530.6,1109.21,367.14,841.05,367.14,590.45C367.14,242.02,648.14-38.98,996.57-38.98z"/>
	<path d="M996.57,241.06c-192.08,0-349.26,157.31-349.26,349.4c0,192.08,157.18,349.26,349.26,349.26s349.26-157.18,349.26-349.26
		S1188.65,241.06,996.57,241.06z M996.57,380.46c116.78,0,209.99,93.21,209.99,209.99s-93.21,209.86-209.99,209.86
		s-209.99-93.07-209.99-209.86S879.79,380.46,996.57,380.46z"/>
</g>
</svg>
