<?xml version="1.0" encoding="utf-8"?>
<!-- Generator: Adobe Illustrator 25.4.1, SVG Export Plug-In . SVG Version: 6.00 Build 0)  -->
<svg version="1.1" id="Capa_1" xmlns="http://www.w3.org/2000/svg" xmlns:xlink="http://www.w3.org/1999/xlink" x="0px" y="0px"
	 viewBox="0 0 2000 2000" style="enable-background:new 0 0 2000 2000;" xml:space="preserve">
<g transform="translate(0,-952.36218)">
	<path d="M6.4,1952.7c0.9,22.2,10,47.9,25.2,64.1l496.9,528c33.7,30.3,98.2,42.8,135.9,7.8c37.1-34.5,36-101.3-1-135.9L314,2045.8
		h1586.8c51.5,0,93.2-41.7,93.2-93.2c0-51.5-41.7-93.2-93.2-93.2H314l349.4-370.8c31.8-31.8,37.7-101,1-135.9
		c-36.7-34.8-103.6-23.7-135.9,7.8l-496.9,528C14.6,1906.7,6.3,1927.9,6.4,1952.7z"/>
</g>
</svg>
