<?xml version="1.0" encoding="utf-8"?>
<!-- Generator: Adobe Illustrator 25.4.1, SVG Export Plug-In . SVG Version: 6.00 Build 0)  -->
<svg version="1.1" id="Layer_1" xmlns="http://www.w3.org/2000/svg" xmlns:xlink="http://www.w3.org/1999/xlink" x="0px" y="0px"
	 viewBox="0 0 2000 2000" style="enable-background:new 0 0 2000 2000;" xml:space="preserve">
<g>
	<path d="M1822.72,522.85c-2-52.09-2-102.17-2-150.25c0-38.06-30.05-68.12-68.12-68.12c-294.5-2-518.88-86.15-705.19-266.45
		c-26.04-26.04-70.12-26.04-96.16,0c-186.32,180.31-410.7,264.45-703.19,264.45c-38.06,0-68.12,30.05-68.12,68.12
		c0,48.08,0,98.17-2,152.26c-10.02,494.84-24.04,1169.98,799.35,1454.46c8.01,2,14.02,4.01,22.04,4.01c8.01,0,16.03-2,22.04-4.01
		C1844.76,1692.84,1830.74,1017.69,1822.72,522.85z M999.33,1839.08C294.13,1582.65,304.15,1021.7,314.17,526.86
		c0-30.05,2-58.1,2-86.15c274.46-14.02,494.84-96.16,683.16-260.44c188.32,164.28,408.69,248.42,683.16,258.44
		c0,28.05,0,56.1,2,86.15C1694.51,1021.7,1704.52,1582.65,999.33,1839.08z"/>
	<path d="M1235.73,761.26l-330.56,330.56L762.93,949.58c-26.04-26.04-70.12-26.04-98.17,0c-26.04,26.04-26.04,70.12,0,98.17
		l190.32,190.32c14.02,14.02,30.05,20.03,48.08,20.03s36.06-6.01,48.08-20.03l380.64-380.64c26.04-26.04,26.04-70.12,0-98.17
		C1305.85,733.21,1261.77,733.21,1235.73,761.26z"/>
</g>
</svg>
