<?xml version="1.0" encoding="utf-8"?>
<!-- Generator: Adobe Illustrator 25.4.1, SVG Export Plug-In . SVG Version: 6.00 Build 0)  -->
<svg version="1.1" id="Layer_1" xmlns="http://www.w3.org/2000/svg" xmlns:xlink="http://www.w3.org/1999/xlink" x="0px" y="0px"
	 viewBox="0 0 2000 2000" style="enable-background:new 0 0 2000 2000;" xml:space="preserve">
<path d="M1334.14,1272.06c15.29,15.29,15.29,41.49,0,56.78c-8.74,8.74-17.47,10.92-28.39,10.92s-21.84-4.37-28.39-10.92
	L672.41,723.89c-15.29-15.29-15.29-41.49,0-56.78c15.29-15.29,41.49-15.29,56.78,0L1334.14,1272.06z M1858.29,1289.53
	c100.46,100.46,141.96,248.97,107.01,388.74c-4.37,17.47-19.66,32.76-37.13,37.13c-17.47,4.37-37.13,0-50.23-13.1l-148.51-148.51
	c-13.1-13.1-32.76-21.84-52.41-21.84l0,0c-19.66,0-37.13,6.55-52.41,21.84l-67.7,67.7c-13.1,13.1-21.84,32.76-21.84,52.41
	c0,19.66,6.55,37.13,21.84,52.41l157.24,157.24c13.1,13.1,17.47,30.57,13.1,50.23c-4.37,17.47-17.47,32.76-34.94,37.13
	c-41.49,13.1-82.99,19.66-126.67,19.66c-107.01,0-209.66-41.49-288.28-120.12c-87.36-87.36-131.04-209.66-115.75-334.14
	c6.55-50.23-10.92-98.28-43.68-133.22L589.42,874.58c-32.76-32.76-80.81-50.23-131.04-48.05
	c-117.93,8.74-233.68-34.94-316.67-117.93C41.25,608.14-0.25,459.63,34.7,319.86c4.37-17.47,19.66-32.76,37.13-37.13
	c17.47-4.37,37.13,0,50.23,13.1l148.51,148.51c28.39,28.39,74.25,28.39,102.65,0l67.7-67.7c28.39-28.39,28.39-74.25,0-102.65
	L283.67,116.75c-13.1-13.1-17.47-30.58-13.1-50.23c4.37-17.47,17.47-32.76,34.94-37.13c146.32-45.86,305.75-8.74,412.76,100.46
	C805.63,217.21,849.31,339.51,834.02,464c-6.55,52.41,10.92,102.65,48.05,139.77l519.78,519.78l2.18,2.18
	c32.76,32.76,80.81,50.23,131.04,48.05C1659.55,1162.86,1775.3,1206.54,1858.29,1289.53z M1801.51,1348.49
	c-65.52-65.52-159.43-100.46-253.34-93.91c-69.89,4.37-137.59-19.66-187.82-65.52c-2.18-2.18-4.37-2.18-6.55-4.37L831.84,662.74
	c-54.6-54.6-78.62-128.85-69.89-205.29c10.92-98.28-24.02-196.55-93.91-266.44c-74.25-74.25-179.08-107.01-281.73-91.73
	L506.43,219.4c61.15,61.15,61.15,159.43,0,218.39l-67.7,67.7c-61.15,61.15-159.43,61.15-218.39,0l-109.2-109.2
	c-8.74,93.91,26.21,187.82,93.91,255.52c65.52,65.52,159.43,100.46,253.34,93.91c72.07-4.37,144.14,21.84,194.37,72.07
	l519.78,519.78l2.18,2.18c2.18,2.18,2.18,4.37,4.37,4.37l8.74,8.74c2.18,2.18,4.37,4.37,6.55,8.74
	c39.31,50.23,58.97,115.75,50.23,183.45c-10.92,98.28,24.02,196.55,93.91,266.44c74.25,74.25,179.08,107.01,281.73,91.73
	l-120.12-120.12c-61.15-61.15-61.15-159.43,0-218.39l67.7-67.7c28.39-28.39,67.7-45.86,109.2-45.86l0,0
	c41.49,0,80.81,15.29,109.2,45.86l109.2,109.2C1904.15,1510.11,1869.21,1416.2,1801.51,1348.49z"/>
</svg>
